<svg width="56" height="56" viewBox="0 0 56 56" fill="none" xmlns="http://www.w3.org/2000/svg">
<circle cx="28" cy="28" r="28" fill="white"/>
<path d="M4 27.0942C4.14069 20.9582 6.7147 15.0028 11.9011 10.2257C14.854 7.50617 18.3137 5.69158 22.2003 4.71634C25.5337 3.87859 28.9055 3.77147 32.2917 4.39339C32.8928 4.5037 33.4892 4.6396 34.0823 4.78508C35.1998 5.05847 35.8122 6.01773 35.5436 7.05213C35.2718 8.10731 34.2614 8.65249 33.1374 8.35831C31.2861 7.87549 29.4027 7.64846 27.489 7.70442C18.7278 7.95703 11.1928 13.6806 8.58844 22.0853C7.58922 25.3084 7.37179 28.605 8.08324 31.9017C9.63084 39.0753 13.8196 44.121 20.6095 46.922C23.855 48.2602 27.2684 48.6791 30.7473 48.1323C38.3542 46.9396 43.7068 42.7685 46.8036 35.7355C47.838 33.3869 48.2745 30.8881 48.348 28.3236C48.3592 27.924 48.4296 27.4939 48.5942 27.1358C48.9188 26.4307 49.7853 26.0406 50.4936 26.1941C51.3537 26.3796 51.9948 26.9951 51.9996 27.8216C52.0044 28.936 51.966 30.0599 51.8237 31.163C51.3233 35.0416 49.95 38.6005 47.6893 41.7932C44.4055 46.4296 40.0249 49.5456 34.5587 51.1252C31.3948 52.0397 28.1701 52.2731 24.9182 51.8334C19.3385 51.0788 14.5678 48.6663 10.654 44.6038C8.07524 41.9259 6.25425 38.7907 5.11114 35.2527C4.42207 33.1135 4.01599 30.5491 4 27.0942Z" fill="#FF4D14"/>
<path d="M26.023 34.4469C26.5378 33.7946 27.0238 33.1838 27.5066 32.5699C33.0591 25.5018 38.6116 18.4337 44.1641 11.3655C44.4183 11.041 44.6741 10.718 44.9299 10.3951C45.6781 9.45503 46.7653 9.26957 47.6286 9.93306C48.4808 10.5886 48.5815 11.7285 47.8525 12.6621C46.5687 14.3089 45.2769 15.9476 43.9867 17.5895C38.5732 24.4786 33.1582 31.3692 27.7432 38.2567C26.9023 39.3279 25.7048 39.403 24.752 38.4502C21.7415 35.4413 18.7326 32.4324 15.7238 29.422C14.9707 28.6673 14.8812 27.6297 15.4967 26.8639C16.1986 25.991 17.4344 25.9271 18.277 26.752C19.5032 27.9527 20.7087 29.1726 21.9221 30.386C23.1836 31.6458 24.4434 32.9057 25.7048 34.1655C25.7896 34.2454 25.8807 34.3206 26.023 34.4469Z" fill="#FF4D14"/>
</svg>
