<svg width="41" height="68" viewBox="0 0 41 68" fill="none" xmlns="http://www.w3.org/2000/svg">
<path d="M40.9878 3.84183C40.9829 3.27194 40.9763 2.70205 40.9763 2.13216C40.9763 0.697621 40.2677 0 38.8126 0C32.7177 0 26.6195 0 20.5229 0H16.1839C11.4832 0 6.78257 0 2.08189 0C0.768205 0 0.0398372 0.72546 0.0299722 2.04046C0.0266839 2.5432 0.0266839 3.04595 0.0299722 3.54869C0.0332606 4.06945 0.0233961 4.60495 0.0151753 5.12407C-0.0045547 6.32771 -0.0259289 7.57393 0.0973837 8.80541C0.271665 10.5577 0.556107 12.3164 0.832327 14.0163C0.945774 14.7139 1.06251 15.4361 1.16938 16.1452C1.35846 17.3947 1.54754 18.6442 1.73826 19.8937C1.96845 21.4052 2.19863 22.9183 2.42553 24.4298C2.6853 26.1509 2.9418 27.8721 3.19829 29.5916L3.69482 32.9143C4.11409 35.7097 4.53335 38.5051 4.9559 41.3005C5.07921 42.1143 5.20417 42.9299 5.32748 43.7438C5.57575 45.3666 5.83225 47.0435 6.06901 48.6943C6.11504 49.0152 6.16436 49.3378 6.21533 49.6588C6.38961 50.7789 6.55239 51.8385 6.57212 52.9045C6.62309 55.7589 6.61323 59.0685 6.60336 62.27C6.60007 63.4982 6.59678 64.6904 6.59678 65.8072C6.59678 67.3024 7.30049 68 8.81148 68C12.7114 68 16.6114 68 20.5114 68C24.4113 68 28.3113 68 32.2113 68C33.7173 68 34.4194 67.2991 34.4194 65.7958C34.4194 64.8492 34.4227 63.8257 34.426 62.7711C34.4358 60.0838 34.4457 57.0379 34.4029 54.5667C34.3684 52.5574 34.6446 50.5546 34.9061 48.8367C35.3401 45.9922 35.7709 43.1477 36.1984 40.3032C36.4434 38.677 36.6867 37.0509 36.93 35.4247C37.1931 33.6643 37.4578 31.9022 37.7225 30.1418C38.1122 27.5527 38.5051 24.9637 38.8981 22.3746L39.3058 19.6857C39.4226 18.9111 39.541 18.1365 39.6593 17.3619C39.9241 15.6342 40.1953 13.8476 40.4535 12.0872C40.4962 11.8006 40.5406 11.5124 40.585 11.2258C40.7429 10.2121 40.9073 9.16405 40.9517 8.10616C41.0158 6.6798 41.0026 5.23707 40.9878 3.84183ZM30.7217 58.985C30.1939 58.9751 29.5691 58.9702 28.9312 58.985C28.9279 58.5805 28.9032 58.1563 28.8111 57.7371C28.4099 55.9046 26.8102 54.6208 24.9194 54.6158C23.3459 54.6109 21.8415 54.6093 20.3881 54.6093C18.9149 54.6093 17.4927 54.6109 16.1017 54.6158C13.91 54.6224 12.1409 56.3517 12.0768 58.551C12.0735 58.6869 12.0719 58.8196 12.0719 58.9522H10.329V53.9444H30.7184C30.7184 54.4455 30.7184 54.9466 30.7184 55.4461C30.7151 56.6055 30.7151 57.801 30.7217 58.985ZM15.7745 58.6345C15.7844 58.5346 15.8321 58.3037 16.0886 58.3021C17.5502 58.2972 19.0366 58.2955 20.536 58.2955C21.9813 58.2955 23.4413 58.2972 24.9013 58.3021C25.1578 58.3021 25.2268 58.497 25.2416 58.6607C25.2515 58.7688 25.2597 58.8818 25.2679 58.9833C25.1676 58.985 25.0558 58.985 24.949 58.985H20.49C20.0477 58.985 19.6071 58.9833 19.1648 58.9833C18.055 58.9817 16.9074 58.9784 15.7745 58.9915C15.7745 58.9506 15.7729 58.9096 15.7729 58.8703C15.7712 58.7819 15.7696 58.6984 15.7745 58.6345ZM30.7184 62.6499C30.7184 63.0004 30.7184 63.7078 30.7184 64.2875H10.2962C10.2945 63.7652 10.2945 63.1281 10.2994 62.6499C17.1063 62.6499 23.9132 62.6499 30.7184 62.6499ZM30.9831 50.2402C22.7589 50.2254 16.0951 50.2271 10.0216 50.2451C9.68453 47.9016 9.32609 45.5238 8.97917 43.223L8.94465 42.9905C8.74571 41.6656 8.54347 40.3392 8.34288 39.0144C8.1127 37.4963 7.88251 35.9782 7.65398 34.4585C7.40899 32.8242 7.16567 31.1882 6.92233 29.5539C6.65433 27.7525 6.38632 25.9512 6.11504 24.1514C5.8569 22.4336 5.59548 20.7174 5.33241 19.0012C5.16964 17.94 5.00851 16.8788 4.84738 15.8176C4.56458 13.959 4.28508 12.0986 4.00721 10.2498H37.0057C36.8149 11.5107 36.6226 12.7733 36.4302 14.0343C36.1786 15.6834 35.9271 17.3308 35.6788 18.9799C35.4256 20.665 35.1741 22.3501 34.9241 24.0368C34.7104 25.4763 34.4967 26.9141 34.2796 28.3519C34.0807 29.6784 33.8785 31.0065 33.6762 32.3329C33.5102 33.4219 33.3441 34.5109 33.1797 35.6016C32.9331 37.2326 32.6897 38.8653 32.4447 40.498C32.2655 41.6935 32.0863 42.8889 31.9071 44.0844C31.815 44.6919 31.7229 45.3011 31.6309 45.9087C31.4122 47.3236 31.1886 48.7909 30.9831 50.2402ZM37.2835 5.70051C37.2852 5.98054 37.2884 6.25893 37.2884 6.53897H20.4982H3.72113C3.72113 6.25893 3.72277 5.97727 3.72442 5.69724C3.72935 5.03564 3.73264 4.3544 3.71455 3.67479C7.27582 3.68789 10.8946 3.68625 14.3934 3.68625H17.5025H21.4798C26.6622 3.68625 32.0222 3.68789 37.295 3.67479C37.272 4.3544 37.2786 5.03728 37.2835 5.70051Z" fill="white"/>
</svg>
