<svg width="67" height="66" viewBox="0 0 67 66" fill="none" xmlns="http://www.w3.org/2000/svg">
<path d="M66.1793 23.7751C64.7522 19.8153 61.9984 17.0624 57.9935 15.5959C54.1648 14.1943 50.2653 14.522 46.4037 16.5741L46.1502 16.7087L46.1618 16.4249C46.1782 15.995 46.2062 15.5635 46.2325 15.1466C46.2918 14.2251 46.3461 13.354 46.2984 12.4748C45.9922 6.90087 42.7511 2.38951 37.841 0.700794C37.2221 0.488285 36.5636 0.342286 35.925 0.202776C35.9217 0.202776 35.9184 0.201154 35.9168 0.201154C35.3143 0.0681328 34.6987 0 34.0814 0H33.1728C32.5456 0 31.9201 0.069755 31.3078 0.207643C31.2733 0.215754 31.2387 0.223865 31.2041 0.230354C30.4963 0.38933 29.7638 0.553173 29.0857 0.811104C24.9179 2.396 22.2118 5.48144 21.0431 9.98145C20.5295 11.9541 20.4752 14.0013 20.8768 16.0647C20.89 16.1345 20.8883 16.201 20.885 16.2837C20.8834 16.3243 20.8818 16.3729 20.8818 16.4313V16.6795L20.6513 16.579C20.4307 16.4833 20.2168 16.3875 20.0044 16.2918C19.5534 16.0907 19.1287 15.8993 18.6892 15.7338C14.9115 14.303 10.9149 14.4798 7.43684 16.2302C3.95051 17.9854 1.45675 21.0806 0.414804 24.9463C0.302873 25.3632 0.21234 25.7964 0.1251 26.2149C0.0839484 26.4095 0.0427972 26.6042 0 26.7989V29.7416C0.0625498 30.0125 0.120161 30.2866 0.177773 30.5608C0.299581 31.148 0.426326 31.7547 0.617268 32.3257C2.49212 37.9694 6.34222 41.1716 12.3849 42.1125L12.7042 42.1628L12.477 42.3883C8.08045 46.7293 6.82616 51.716 8.7471 57.212C9.82032 60.2829 11.9421 62.6967 15.0547 64.3871C17.2802 65.5956 19.6472 66.1293 22.09 65.9736C24.5475 65.8162 26.8223 64.9873 28.8536 63.5078C30.758 62.1208 32.2889 60.2553 33.4049 57.9599L33.5283 57.7052L33.6896 57.9388C33.9349 58.2957 34.1736 58.6574 34.404 59.0078C34.911 59.7768 35.39 60.5035 35.9381 61.1929C38.0517 63.8534 41.0639 65.5242 44.4219 65.8957C47.8177 66.2705 51.1773 65.2842 53.8817 63.1153C56.6964 60.8588 58.3853 58.015 58.9038 54.6652C59.5803 50.282 58.3195 46.3968 55.1574 43.1151C55.0767 43.0307 54.9944 42.9463 54.9105 42.8636C54.8101 42.7614 54.7097 42.6592 54.6093 42.5554C54.5698 42.5132 54.5533 42.4694 54.5335 42.4175C54.5237 42.3932 54.5121 42.3624 54.4957 42.325L54.4101 42.1304L54.6241 42.0995C59.9935 41.3404 63.7728 38.5112 65.8567 33.6884C67.2641 30.4229 67.3727 27.0893 66.1793 23.7751ZM25.2932 8.81021C26.5771 6.08815 29.1449 4.17394 32.1572 3.69052C35.1168 3.21522 37.9743 4.15123 40.0006 6.25848C42.0236 8.36248 42.9141 11.0959 42.6458 14.3809C42.4647 16.5936 41.7191 18.816 40.2952 21.3758C39.7586 22.3394 39.2533 23.3436 38.7644 24.3153C38.5175 24.8036 38.2722 25.2935 38.0204 25.7785C37.9513 25.9115 37.8723 26.0381 37.7867 26.1711C37.7455 26.236 37.7027 26.3041 37.6583 26.3771L37.5924 26.4858L35.4147 25.8304V23.0516C35.4147 21.4034 35.4147 19.7536 35.4147 18.1055C35.4147 17.4063 35.1991 16.8126 34.8073 16.4346C34.4995 16.1361 34.0863 15.9804 33.6304 15.9917C33.1234 15.9998 32.6823 16.1832 32.3531 16.5222C31.9811 16.905 31.7753 17.4696 31.7901 18.0714C31.8329 19.8591 31.8247 21.6062 31.8148 23.4588C31.8115 24.2066 31.8082 24.9577 31.8082 25.7169V25.8385L31.6897 25.8726C31.5712 25.9067 31.456 25.9375 31.344 25.9683C31.1037 26.0348 30.8782 26.0965 30.6543 26.1678C29.6535 26.4842 29.5778 26.455 29.0116 25.5709L28.9918 25.5417C27.2536 22.8212 25.9829 20.3295 25.1039 17.9254C23.8957 14.6177 23.9582 11.6377 25.2932 8.81021ZM7.34137 36.2126C4.17108 33.3915 3.00239 29.8194 3.96204 25.8856C4.92991 21.9144 7.68704 19.3627 11.9338 18.5062C14.2548 18.0373 16.5477 18.4332 18.5658 19.6498C19.6555 20.3068 20.6809 21.1001 21.6735 21.8657C22.0718 22.174 22.4834 22.4919 22.8932 22.7969C23.0463 22.9104 23.1879 23.0727 23.3163 23.2787C24.1623 24.6349 25.0035 25.9959 25.8528 27.3683L26.6051 28.5833L26.5409 28.6709C26.424 28.8283 26.3071 28.9808 26.1936 29.13C25.9368 29.4674 25.6931 29.7854 25.4792 30.1195C25.2207 30.5219 24.9524 30.6143 24.4932 30.4618C22.0504 29.6556 19.6637 28.8915 17.3971 28.1924C16.7041 27.9782 16.0276 28.095 15.5436 28.5119C15.0712 28.9191 14.8687 29.5388 14.9856 30.2136C15.1091 30.9225 15.57 31.38 16.4358 31.6574C17.0596 31.8569 17.6851 32.0581 18.309 32.2592C19.9188 32.7767 21.5813 33.3137 23.2274 33.8117C23.7837 33.9804 23.9714 34.2481 23.945 34.8337L23.9418 34.8953C23.8726 36.4835 23.8265 36.5451 22.2546 37.0902C22.0077 37.1761 21.7624 37.2621 21.5171 37.3497C20.034 37.8753 18.4999 38.4188 16.8605 38.5404C16.1527 38.5923 15.4366 38.628 14.7239 38.628C12.1034 38.6264 9.51251 38.1446 7.34137 36.2126ZM30.0881 56.4626C28.5194 59.5934 26.3121 61.4557 23.3393 62.1517C22.6562 62.3123 21.9632 62.3885 21.2719 62.3885C18.2053 62.3885 15.1947 60.8588 13.3544 58.2373C10.4573 54.1088 11.0861 48.6111 14.849 45.1671C17.0563 43.1475 19.7657 41.6664 23.3739 40.5033C23.7261 40.3897 24.0751 40.2713 24.4422 40.1464C24.615 40.088 24.7911 40.028 24.9722 39.9663L25.0858 39.9274L25.1565 40.0215C25.2635 40.1626 25.3705 40.3005 25.4759 40.4368C25.759 40.8002 26.0273 41.1441 26.2577 41.522C26.3944 41.7459 26.266 42.1498 26.1261 42.3429C25.4183 43.3195 24.6907 44.3074 23.9862 45.2612C23.2735 46.2265 22.5377 47.2257 21.8216 48.212C21.3887 48.809 21.2735 49.492 21.5056 50.0857C21.7179 50.6291 22.2035 51.0201 22.8373 51.1563C23.6027 51.3202 24.2446 51.0331 24.8026 50.2771C25.5763 49.2275 26.3499 48.1763 27.1236 47.1268L28.7334 44.94C28.8815 44.7389 29.0313 44.5394 29.1811 44.3382L29.4626 43.9602L31.7539 44.6967L31.7588 44.8086C31.9383 48.8398 31.9415 52.7607 30.0881 56.4626ZM33.6189 41.2122C33.6106 41.2122 33.6024 41.2122 33.5942 41.2122C31.9893 41.2122 30.4239 40.5747 29.2996 39.4635C28.1787 38.3555 27.5664 36.8582 27.5729 35.2473C27.5894 31.5292 30.6543 29.3149 33.6139 29.3149C33.6205 29.3149 33.6271 29.3149 33.6353 29.3149C36.9834 29.3263 39.6368 31.9478 39.673 35.2814C39.6895 36.8355 39.0772 38.3101 37.9463 39.431C36.8073 40.5633 35.2304 41.2122 33.6189 41.2122ZM55.0817 55.0448C54.0331 58.917 51.3715 61.399 47.3815 62.2263C46.756 62.3561 46.1436 62.421 45.5461 62.421C42.9684 62.421 40.6623 61.2173 38.6656 58.8261C36.9093 56.7221 35.8723 54.1201 35.581 51.0915C35.4443 49.6704 35.4773 48.2656 35.5118 46.778C35.5266 46.1307 35.5415 45.4608 35.5415 44.7924V44.674L37.7455 43.9651L37.9266 44.1922C38.0204 44.309 38.1241 44.4388 38.2229 44.5718C38.7052 45.2255 39.1858 45.8793 39.6664 46.533C40.5833 47.7773 41.5298 49.0653 42.468 50.3258C43.0425 51.0979 43.7486 51.3624 44.5667 51.1109C45.3733 50.8627 45.8655 50.2349 45.8227 49.513C45.7947 49.0475 45.6037 48.5138 45.3239 48.1196C43.9346 46.1599 42.468 44.1938 41.0886 42.364C40.7792 41.9536 40.7891 41.6502 41.1216 41.2803C41.3438 41.0338 41.5413 40.7547 41.7503 40.4611C41.8475 40.3249 41.9495 40.1821 42.0565 40.0377L42.1289 39.9404L42.2442 39.9809C42.6145 40.1123 42.9964 40.2389 43.3684 40.3622C44.2062 40.6396 45.0704 40.9267 45.8934 41.2933C48.035 42.2504 50.2719 43.3843 52.1155 45.1785C55.0767 48.0595 56.0742 51.3786 55.0817 55.0448ZM58.4478 37.0739C56.6191 38.2987 54.4677 38.5145 52.4217 38.6329C52.1962 38.6459 51.9723 38.6524 51.7501 38.6524C48.9534 38.6524 46.379 37.6758 43.8836 36.7284L43.6844 36.6522C43.482 36.5759 43.3141 36.2872 43.3042 36.0909C43.2812 35.6318 43.2845 35.1825 43.2894 34.7055C43.291 34.5319 43.2927 34.3568 43.2927 34.1783V34.0599L49.5279 32.0613C49.6678 32.0159 49.8077 31.9721 49.9477 31.9283C50.2785 31.8245 50.6209 31.7174 50.9517 31.599C52.0431 31.2097 52.555 30.2428 52.1978 29.2468C51.862 28.314 50.8645 27.8728 49.8209 28.1988C47.7436 28.8494 45.3321 29.6102 42.9799 30.3986C42.4861 30.564 41.9396 30.6354 41.6335 29.9135C41.6137 29.8649 41.566 29.7529 41.5084 29.7075C40.4269 28.8704 40.8203 27.9961 41.3454 27.2531C41.7207 26.7226 42.0483 26.1403 42.3643 25.5774C42.5684 25.214 42.7791 24.8393 43.0013 24.4775C45.2959 20.7659 48.7444 18.6619 52.9698 18.3942C58.0808 18.0698 62.5745 21.7863 63.1934 26.854C63.7218 31.174 62.1251 34.6114 58.4478 37.0739Z" fill="white"/>
</svg>
