<svg width="45" height="45" viewBox="0 0 45 45" fill="none" xmlns="http://www.w3.org/2000/svg">
<g>
<path d="M22.3791 1.96619C33.936 1.96619 43.3046 11.3349 43.3046 22.8917C43.3046 34.4485 33.936 43.8172 22.3791 43.8172C10.8223 43.8172 1.45361 34.4485 1.45361 22.8917C1.45361 11.3349 10.8223 1.96619 22.3791 1.96619Z" fill="#ACDF70"/>
<path d="M43.8046 22.8917C43.8046 11.0587 34.2121 1.46619 22.3791 1.46619C10.5461 1.46619 0.953609 11.0587 0.953609 22.8917C0.953608 34.7247 10.5461 44.3172 22.3791 44.3172C34.2121 44.3172 43.8046 34.7247 43.8046 22.8917Z" stroke="white" stroke-opacity="0.6"/>
</g>
<path d="M7.60818 22.3369C7.69477 18.5604 9.27896 14.8952 12.471 11.9551C14.2883 10.2813 16.4176 9.16453 18.8097 8.56431C20.8612 8.04871 22.9364 7.98278 25.0205 8.36554C25.3904 8.43344 25.7575 8.51708 26.1225 8.60662C26.8103 8.77487 27.1872 9.36526 27.0219 10.0019C26.8546 10.6513 26.2327 10.9868 25.541 10.8058C24.4016 10.5086 23.2424 10.3689 22.0646 10.4033C16.6725 10.5588 12.0351 14.0814 10.4322 19.2541C9.81719 21.2378 9.68337 23.2667 10.1212 25.2957C11.0737 29.7107 13.6517 32.8161 17.8306 34.5401C19.8281 35.3636 21.9288 35.6214 24.07 35.2849C28.7517 34.5509 32.046 31.9837 33.9519 27.6552C34.5886 26.2098 34.8572 24.6719 34.9025 23.0936C34.9093 22.8476 34.9526 22.5829 35.054 22.3625C35.2537 21.9286 35.787 21.6885 36.2229 21.7829C36.7523 21.8971 37.1469 22.2759 37.1498 22.7846C37.1528 23.4704 37.1292 24.1622 37.0416 24.8411C36.7336 27.2282 35.8884 29.4185 34.4971 31.3835C32.476 34.237 29.7799 36.1547 26.4157 37.1269C24.4685 37.6897 22.4838 37.8334 20.4824 37.5628C17.0484 37.0984 14.1122 35.6136 11.7035 33.1133C10.1163 31.4652 8.99558 29.5356 8.29204 27.3581C7.86795 26.0415 7.61802 24.4632 7.60818 22.3369Z" fill="white"/>
<path d="M21.1624 26.8622C21.4793 26.4608 21.7784 26.0849 22.0755 25.707C25.4929 21.3569 28.9102 17.0068 32.3275 12.6567C32.4839 12.4569 32.6414 12.2582 32.7988 12.0594C33.2593 11.4808 33.9284 11.3667 34.4598 11.775C34.9842 12.1785 35.0462 12.88 34.5975 13.4547C33.8074 14.4682 33.0123 15.4767 32.2183 16.4873C28.8866 20.7272 25.5539 24.9681 22.2212 29.207C21.7036 29.8663 20.9666 29.9125 20.3802 29.3261C18.5274 27.4742 16.6755 25.6224 14.8237 23.7696C14.3602 23.3052 14.3051 22.6666 14.684 22.1953C15.1159 21.658 15.8765 21.6187 16.3951 22.1264C17.1498 22.8653 17.8917 23.6161 18.6385 24.3629C19.4149 25.1383 20.1903 25.9137 20.9666 26.689C21.0188 26.7382 21.0748 26.7845 21.1624 26.8622Z" fill="white"/>
</svg>
