<svg width="65" height="57" viewBox="0 0 65 57" fill="none" xmlns="http://www.w3.org/2000/svg">
<path d="M32.4774 56.9955C23.3675 56.9955 14.2591 56.9941 5.14921 56.9999C4.1884 56.9999 3.24834 56.9089 2.37205 56.4947C0.414844 55.5709 -0.431796 53.6234 0.213192 51.4865C0.367397 50.9768 0.592772 50.476 0.861146 50.0148C10.0585 34.219 19.2663 18.4291 28.4711 2.63772C28.9678 1.78734 29.6084 1.06768 30.4683 0.56539C31.9896 -0.324638 33.8119 -0.163082 35.2042 1.0574C35.7217 1.51123 36.1887 2.06786 36.5342 2.65975C45.742 18.4218 54.9319 34.1941 64.1264 49.9634C64.5756 50.7345 64.9137 51.5437 64.9849 52.4367C65.1583 54.6265 63.8936 56.3008 61.6398 56.8208C61.0586 56.9544 60.4418 56.9882 59.8413 56.9897C50.721 56.9985 41.5992 56.9955 32.4774 56.9955ZM28.8418 15.6518C29.036 23.1671 29.2288 30.6516 29.4215 38.136C31.5107 38.136 33.5376 38.136 35.5882 38.136C35.781 30.6295 35.9722 23.1539 36.165 15.6518C33.7215 15.6518 31.3076 15.6518 28.8418 15.6518ZM28.8433 46.8718C28.8373 48.8869 30.4669 50.5142 32.4997 50.5201C34.5073 50.5259 36.1605 48.903 36.1694 46.9188C36.1783 44.9126 34.534 43.2735 32.5101 43.2677C30.5024 43.2618 28.8492 44.8876 28.8433 46.8718Z" fill="url(#paint0_linear_1_349)"/>
<path d="M28.8418 15.6519C31.3076 15.6519 33.7215 15.6519 36.165 15.6519C35.9723 23.1525 35.781 30.6296 35.5882 38.1361C33.5376 38.1361 31.5092 38.1361 29.4215 38.1361C29.2288 30.6516 29.036 23.1672 28.8418 15.6519Z" fill="white"/>
<path d="M28.8433 46.8718C28.8492 44.8876 30.5025 43.2632 32.5086 43.2676C34.534 43.272 36.1769 44.9125 36.168 46.9188C36.1591 48.903 34.5058 50.5273 32.4982 50.52C30.4669 50.5127 28.8359 48.8868 28.8433 46.8718Z" fill="white"/>
<defs>
<linearGradient id="paint0_linear_1_349" x1="22.5012" y1="4.5" x2="58.0012" y2="67" gradientUnits="userSpaceOnUse">
<stop offset="0.0487899" stop-color="#66BC12"/>
<stop offset="1" stop-color="#96DB39"/>
</linearGradient>
</defs>
</svg>
