<svg width="57" height="57" viewBox="0 0 57 57" fill="none" xmlns="http://www.w3.org/2000/svg">
<path d="M28.5 0C44.21 0 57 12.79 57 28.5C57 44.21 44.21 57 28.5 57C12.79 57 0 44.21 0 28.5C0 12.79 12.79 0 28.5 0ZM28.5 2C13.89 2 2 13.89 2 28.5C2 43.11 13.89 55 28.5 55C43.11 55 55 43.11 55 28.5C55 13.89 43.11 2 28.5 2Z" fill="#F8DDF5"/>
<path d="M41.52 29.4097H18.74L25.49 36.5897C25.67 36.7797 25.77 37.0497 25.76 37.3297C25.75 37.6097 25.63 37.8697 25.44 38.0397C25.25 38.2197 25 38.3197 24.75 38.3197C24.48 38.3197 24.21 38.2097 23.99 37.9997L15.59 29.0697C15.22 28.6297 15.31 28.0497 15.59 27.7197L24 18.7797C24.39 18.3797 25.06 18.3597 25.45 18.7397C25.85 19.1297 25.87 19.7897 25.49 20.1897L18.73 27.3697H41.52C42.08 27.3697 42.54 27.8297 42.54 28.3897C42.54 28.9497 42.09 29.4097 41.52 29.4097Z" fill="#F8DDF5"/>
</svg>
