<svg width="70" height="70" viewBox="0 0 70 70" fill="none" xmlns="http://www.w3.org/2000/svg">
<path d="M35 0.999999C53.7777 0.999999 69 16.2223 69 35C69 53.7777 53.7777 69 35 69C16.2223 69 0.999998 53.7777 0.999998 35C0.999999 16.2223 16.2223 0.999998 35 0.999999Z" fill="#B6DAFE"/>
<path d="M69.5 35C69.5 15.9462 54.0538 0.499999 35 0.499999C15.9462 0.499998 0.499999 15.9462 0.499998 35C0.499998 54.0538 15.9462 69.5 35 69.5C54.0538 69.5 69.5 54.0538 69.5 35Z" stroke="white"/>
<path d="M11 34.0986C11.1407 27.9625 13.7147 22.0072 18.9011 17.2301C21.854 14.5106 25.3137 12.696 29.2003 11.7207C32.5337 10.883 35.9055 10.7759 39.2917 11.3978C39.8928 11.5081 40.4892 11.644 41.0823 11.7895C42.1998 12.0629 42.8122 13.0221 42.5436 14.0565C42.2718 15.1117 41.2614 15.6569 40.1374 15.3627C38.2861 14.8799 36.4027 14.6529 34.489 14.7088C25.7278 14.9614 18.1928 20.685 15.5884 29.0897C14.5892 32.3128 14.3718 35.6094 15.0832 38.9061C16.6308 46.0797 20.8196 51.1254 27.6095 53.9264C30.855 55.2646 34.2684 55.6835 37.7473 55.1367C45.3542 53.944 50.7068 49.7728 53.8036 42.7399C54.838 40.3913 55.2745 37.8925 55.348 35.328C55.3592 34.9283 55.4296 34.4983 55.5942 34.1402C55.9188 33.4351 56.7853 33.045 57.4936 33.1985C58.3537 33.3839 58.9948 33.9995 58.9996 34.826C59.0044 35.9404 58.966 37.0643 58.8237 38.1674C58.3233 42.046 56.95 45.6049 54.6893 48.7976C51.4055 53.434 47.0249 56.55 41.5587 58.1296C38.3948 59.0441 35.1701 59.2775 31.9182 58.8378C26.3385 58.0832 21.5678 55.6707 17.654 51.6082C15.0752 48.9303 13.2543 45.7951 12.1111 42.2571C11.4221 40.1179 11.016 37.5535 11 34.0986Z" fill="white"/>
<path d="M33.023 41.4512C33.5378 40.7989 34.0238 40.1882 34.5066 39.5743C40.0591 32.5061 45.6116 25.438 51.1641 18.3699C51.4183 18.0453 51.6741 17.7224 51.9299 17.3994C52.6781 16.4594 53.7653 16.2739 54.6286 16.9374C55.4808 17.5929 55.5815 18.7328 54.8525 19.6665C53.5687 21.3132 52.2769 22.9519 50.9867 24.5939C45.5732 31.4829 40.1582 38.3736 34.7432 45.261C33.9023 46.3322 32.7048 46.4074 31.752 45.4545C28.7415 42.4456 25.7326 39.4368 22.7238 36.4263C21.9707 35.6717 21.8812 34.6341 22.4967 33.8683C23.1986 32.9953 24.4344 32.9314 25.277 33.7564C26.5032 34.957 27.7087 36.1769 28.9221 37.3903C30.1836 38.6502 31.4434 39.91 32.7048 41.1698C32.7896 41.2498 32.8807 41.3249 33.023 41.4512Z" fill="white"/>

</svg>
