<svg width="692" height="685" viewBox="0 0 692 685" fill="none" xmlns="http://www.w3.org/2000/svg">
<path d="M346.153 661.716C520.287 661.716 661.451 520.591 661.451 346.505C661.451 172.419 520.287 31.2938 346.153 31.2938C172.018 31.2938 30.8547 172.419 30.8547 346.505C30.8547 520.591 172.018 661.716 346.153 661.716Z" stroke="white" stroke-miterlimit="10"/>
<path d="M346.153 532.656C448.99 532.656 532.356 449.314 532.356 346.505C532.356 243.696 448.99 160.353 346.153 160.353C243.316 160.353 159.95 243.696 159.95 346.505C159.95 449.314 243.316 532.656 346.153 532.656Z" stroke="white" stroke-miterlimit="10"/>
<path d="M346.153 422.872C388.341 422.872 422.541 388.681 422.541 346.505C422.541 304.328 388.341 270.138 346.153 270.138C303.965 270.138 269.764 304.328 269.764 346.505C269.764 388.681 303.965 422.872 346.153 422.872Z" stroke="white" stroke-miterlimit="10"/>
<path d="M0 344.031L0 345.031L692 345.031V344.031L0 344.031Z" fill="white"/>
<path d="M346.817 0H345.817V685H346.817V0Z" fill="white"/>
</svg>
